<?xml version="1.0" encoding="UTF-8"?>
<svg xmlns="http://www.w3.org/2000/svg"
     viewBox="0 0 758.99 86.4"
     role="img"
     aria-label="PALADINO"
     shape-rendering="geometricPrecision">
  <g fill="currentColor">
    <path d="M40.8,51.6h-22.8l-1.2,1.2v31.2l-1.2,1.2H1.2l-1.2-1.2V2.4l1.2-1.2h39.6c16.8,0,28.8,8.4,28.8,25.2s-12,25.2-28.8,25.2ZM40.8,15.6h-22.8l-1.2,1.2v19.2l1.2,1.2h22.8c7.2,0,12-2.4,12-10.8s-4.8-10.8-12-10.8Z"/>
    <path d="M165,85.2h-10.8l-1.2-1.2-6-15.6-2.4-1.2h-30l-2.4,1.2-6,15.6-1.2,1.2h-10.8l-1.2-1.2v-12L120.6,2.4l1.2-1.2h15.6l1.2,1.2,27.6,69.6v12l-1.2,1.2ZM130.2,22.8h-1.2l-10.8,28.8,1.2,1.2h20.4l1.2-1.2-10.8-28.8Z"/>
    <path d="M258,85.2h-54l-1.2-1.2V2.4l1.2-1.2h14.4l1.2,1.2v67.2l1.2,1.2h37.2l1.2,1.2v12l-1.2,1.2Z"/>
    <path d="M361.8,85.2h-10.8l-1.2-1.2-6-15.6-2.4-1.2h-30l-2.4,1.2-6,15.6-1.2,1.2h-10.8l-1.2-1.2v-12L317.4,2.4l1.2-1.2h15.6l1.2,1.2,27.6,69.6v12l-1.2,1.2ZM327,22.8h-1.2l-10.8,28.8,1.2,1.2h20.4l1.2-1.2-10.8-28.8Z"/>
    <path d="M427.2,85.2h-26.4l-1.2-1.2V2.4l1.2-1.2h26.4c30,0,40.8,15.6,40.8,42s-10.8,42-40.8,42ZM428.4,15.6h-10.8l-1.2,1.2v52.8l1.2,1.2h10.8c16.8,0,22.8-8.4,22.8-27.6s-6-27.6-22.8-27.6Z"/>
    <path d="M522.6,85.2h-14.4l-1.2-1.2V2.4l1.2-1.2h14.4l1.2,1.2v81.6l-1.2,1.2Z"/>
    <path d="M568.79,1.2h16.8l2.4,1.2,32.4,55.2h1.2V2.4l1.2-1.2h14.4l1.2,1.2v81.6l-1.2,1.2h-16.8l-2.4-1.2-32.4-55.2h-1.2v55.2l-1.2,1.2h-14.4l-1.2-1.2V2.4l1.2-1.2Z"/>
    <path d="M718.19,86.4c-25.2,0-40.8-18-40.8-43.2S693,0,718.19,0s40.8,18,40.8,43.2-15.6,43.2-40.8,43.2ZM718.19,14.4c-15.6,0-24,12-24,28.8s8.4,28.8,24,28.8,24-12,24-28.8-8.4-28.8-24-28.8Z"/>
  </g>
</svg>
